<svg xmlns="http://www.w3.org/2000/svg" viewBox="0 0 66.94 85"><g id="Layer_2" data-name="Layer 2"><g id="logo_CB_vaciado" data-name="logo CB vaciado"><path d="M58.68,71.57a.7.7,0,0,1-.06-.09l0,0A.85.85,0,0,0,58,71.2a.83.83,0,0,0-.4.11,1,1,0,0,0-.52.87,1,1,0,0,0,.92,1,.89.89,0,0,0,.65-.29,1,1,0,0,0,.27-.7,1.12,1.12,0,0,0-.07-.38A1.28,1.28,0,0,0,58.68,71.57Zm-.09,1.17h-.14l-.11,0a.35.35,0,0,1-.23-.17,2.53,2.53,0,0,0-.13-.22s0,0-.06,0,0,0,0,0a.07.07,0,0,0-.07,0v.13c0,.14,0,.18.14.19h0a.17.17,0,0,1,0,.1h-.56a.08.08,0,0,1,0,0,.07.07,0,0,1,0,0h0a.14.14,0,0,0,.07-.2v-.33s0-.37,0-.31h0c0-.11,0-.17,0-.18l.46,0H58c.21,0,.46,0,.46.31h0a.31.31,0,0,1-.16.26s0,0,0,.07l0,.1a1,1,0,0,0,.12.19l.06.08h0l.07,0s0,0,0,0S58.6,72.73,58.59,72.74Z"/><path d="M58,71.76l0,0c-.08,0-.1,0-.12,0s0,0,0,0v.29s0,0,0,0H58a.18.18,0,0,0,.17-.19A.2.2,0,0,0,58,71.76Z"/><path d="M30.22,55.91l-.07,0a1.15,1.15,0,0,0-.89.58.61.61,0,0,0-.06.25h0a.88.88,0,0,0,0,.24.56.56,0,0,0,.09.17.48.48,0,0,0,.4.16.67.67,0,0,0,.61-.73v-.45h0C30.35,56,30.29,55.93,30.22,55.91Z"/><path d="M15.55,67.84c-.58-.2-.93-.2-1.14,0a.58.58,0,0,0-.13.14,1.39,1.39,0,0,0-.14.69v1.91h0c0,1.07.1,2,.71,2.33a1.49,1.49,0,0,0,1,.13c.81-.11,1.35-1.07,1.35-2.61a2.62,2.62,0,0,0-.32-1.27A3,3,0,0,0,15.55,67.84Z"/><path d="M40.66,54.61l.2-.07.09-.07v0a.13.13,0,0,0,0-.11.58.58,0,0,0,0-.16.55.55,0,0,0-.56-.39.9.9,0,0,0-.92.83C39.47,54.88,40.27,54.72,40.66,54.61Z"/><path d="M0,0V85H49.1A17.84,17.84,0,0,0,66.94,67.16V0ZM48.85,37.87a1.28,1.28,0,0,1-.24.11,1.77,1.77,0,0,1-1.69-.07l-.12-.08a3,3,0,0,1,.41-.19,1.82,1.82,0,0,1,1.34.07A1.63,1.63,0,0,1,48.85,37.87Zm-.94-2.47a2.72,2.72,0,0,1-1.36,2,4.92,4.92,0,0,1-.6.32,2.47,2.47,0,0,1,.17-.65,2.8,2.8,0,0,1,.58-.91,2.72,2.72,0,0,1,1.21-.73Zm-1.79,9.37-.33.32-.8.79s-.12.1-.21.08l-.06,0s0,0,0-.06,0,0,0,0a.16.16,0,0,1,0-.1.51.51,0,0,0,.06-.15s0,0,0,0a.38.38,0,0,0-.11-.14l-1.78-1.78,0-.05c-.08-.08-.13-.09-.29,0a.19.19,0,0,1-.1,0,.11.11,0,0,1-.08,0,.1.1,0,0,1,0-.08.38.38,0,0,1,.08-.19l1.14-1.11L45.33,44l.79.8Zm-6.6,11.28a1.75,1.75,0,0,0,1.28.85,1.52,1.52,0,0,0,1.35-.48c.08-.08.3,0,.36.12a.12.12,0,0,1,0,.13h0a2.2,2.2,0,0,1-.3.31,3.38,3.38,0,0,1-2.26.91,3.08,3.08,0,0,1-2-.56,1.79,1.79,0,0,1-.62-1.43,2.55,2.55,0,0,1,1.2-2.06,3.16,3.16,0,0,1,1.79-.55,2.56,2.56,0,0,1,1.4.35,1.88,1.88,0,0,1,.72.77.93.93,0,0,0,0,.1c.07.16.06.26-.1.35l-1.5.21L40,55.2l-.41.07a.38.38,0,0,0-.18.09.1.1,0,0,0,0,.07A1.21,1.21,0,0,0,39.52,56.05Zm-14.1,1a1.37,1.37,0,0,0,1.1-.44.2.2,0,0,0,.08-.08c.17,0,.35.06.35.23h0A3.39,3.39,0,0,1,24.24,58a2.64,2.64,0,0,1-1.69-.53,1.78,1.78,0,0,1-.47-.53,1.51,1.51,0,0,1-.23-.78,3.06,3.06,0,0,1,3.27-2.71c.43,0,1.65.09,1.87.86a1.27,1.27,0,0,1,0,.14h0a.5.5,0,0,1-.26.42,1,1,0,0,1-.28.14.78.78,0,0,1-.66-.1l0,0c-.38-.42-.14-.93-.62-.93a1.07,1.07,0,0,0-.67.21,1.82,1.82,0,0,0-.55,1.16.19.19,0,0,1,0,.08A1.35,1.35,0,0,0,25.42,57ZM20.66,44.45a.42.42,0,0,1,0,.06.13.13,0,0,1,0,.18c-.08.06-.17,0-.22,0l0,0L20,44.08l-.65-.8a.29.29,0,0,1-.07-.19.15.15,0,0,1,.05-.07.1.1,0,0,1,.07,0h0a.13.13,0,0,1,.08,0c.16.13.19.11.33,0l2-1.58c.14-.12.16-.12.08-.32a.15.15,0,0,1,0-.18h0l0,0h0l.08,0h0a.19.19,0,0,1,.08.07h0l.14.18.86,1.05h0l-2.4,1.91C20.64,44.28,20.61,44.31,20.66,44.45Zm-2-4.36a2.85,2.85,0,0,1,2-1.84h0A2,2,0,0,1,20,39.56l-.07,0a2.65,2.65,0,0,1-1.18.49Zm3.54-1.63a5.18,5.18,0,0,1-1.09,2.44,5,5,0,0,1-1.86,1.41,4.44,4.44,0,0,1,.2-.89l.07-.18s0-.06,0-.09a4.62,4.62,0,0,1,.49-.92c.08-.11.16-.22.26-.34a5.28,5.28,0,0,1,1.89-1.43ZM21,45.12a.63.63,0,0,1,.19-.41,1.07,1.07,0,0,1,.14-.16l.16-.12.1-.08a.51.51,0,0,0,.25-.37s0,0,0,0a.56.56,0,0,0-.09-.2h0l.14-.11.09-.07.13.11a.36.36,0,0,0,.43-.08l.27-.21.19-.15a.37.37,0,0,0,.17-.35v0a1.3,1.3,0,0,0-.06-.19h0l.22-.18v0h0a3.1,3.1,0,0,1,.63,1,1.14,1.14,0,0,1,.06.3.74.74,0,0,1,0,.26.55.55,0,0,1-.12.24.8.8,0,0,1-.15.17.81.81,0,0,1-.29.15,1.25,1.25,0,0,1-1.09-.4h0a3.79,3.79,0,0,1,.2.34,1.25,1.25,0,0,1,.09.25.67.67,0,0,1,0,.24.51.51,0,0,1-.21.42l-.33.26-.07.06a.05.05,0,0,0,0,.08.12.12,0,0,0,.1,0,.24.24,0,0,1,.17.08.21.21,0,0,1,0,.12.12.12,0,0,1,0,.1.5.5,0,0,1-.31,0l-.21,0a1,1,0,0,1-.31-.17,1.52,1.52,0,0,1-.26-.25,1.09,1.09,0,0,1-.27-.66Zm6.44-13.64a.13.13,0,0,1,.09.07h0a.14.14,0,0,1-.06.14h0l-.05,0-.18.07-.65.23h0a.44.44,0,0,1-.27,0s-.05,0-.06-.05,0-.15.11-.2a.87.87,0,0,0,.3-.44l.27-.85h0l.27.22,0,.17v0c0,.11-.11.28-.07.38S27.32,31.45,27.43,31.48Zm.5,1.58A10.72,10.72,0,0,1,32.37,32v2.73h0c-2.67.15-4.78,1.85-4.78,3.93A3.5,3.5,0,0,0,29,41.36a6,6,0,0,0,3.7,1.21h.56l0-.74v-.52h2.52v3.9h0l-3.1.13c-4.84,0-8.76-3.09-8.76-6.75C24,36.27,25.55,34.24,27.93,33.06Zm5.38,1.66V31.87h0a10,10,0,0,1,8.4,4c1,1.51.58,2.31.2,2.67a1.3,1.3,0,0,1-.33.23c.9,1.6.16,3-1,4a12.34,12.34,0,0,1-3.52,2.08V40.79s.16-.81-.89-.81l.26.08H30.8v-.6l0-1.92h4.81a2.89,2.89,0,0,0,1.79-.38l0,0,.08-.1a.33.33,0,0,0,.07-.23C37.58,34.87,33.31,34.72,33.31,34.72Zm9.11,11.59h0l-.27-.24L42,46l-.13-.62-.11-.52a.25.25,0,0,1,0-.07v0l0-.09a.24.24,0,0,0-.23-.12.21.21,0,0,0-.11,0c-.11,0-.2,0-.26,0s0-.17.1-.23l.13-.09.61-.35.16-.08a.2.2,0,0,1,.16,0,.1.1,0,0,1,.08,0s0,.09,0,.12a.47.47,0,0,1-.09.12l-.05.08a.52.52,0,0,0-.12.27,1.08,1.08,0,0,0,0,.36l.33,1.61Zm-4.26,1.28a2.66,2.66,0,0,1,.39,0h.06c.35,0,.65.1.74.45l.08.33,0,.08v0s0,.09.07.1h0c.09,0,.08-.17.22-.2h0c.08,0,.19,0,.21.1a.11.11,0,0,1,0,0,.49.49,0,0,1-.12.28l-.11.13a1.05,1.05,0,0,1-.3.22l-.33.11a2.19,2.19,0,0,1-.36,0,.94.94,0,0,1-.34-.08.56.56,0,0,1-.24-.21,1,1,0,0,1-.14-.33l-.08-.31s0-.05,0-.07c0-.18-.14-.36-.39-.35h-.08l-.06-.27a.91.91,0,0,0,.17-.08h0a.13.13,0,0,0,.05-.06l0,0a.52.52,0,0,0,0-.3l-.13-.56c-.05-.23-.15-.33-.46-.34L37,46h0a5.11,5.11,0,0,1,.87-.15,1.32,1.32,0,0,1,.28,0,.84.84,0,0,1,.79.62.67.67,0,0,1,0,.37,1.2,1.2,0,0,1-.73.7l-.11.06ZM36,49.35l0-.18-.54-2.28c0-.17,0-.21-.26-.21a.15.15,0,0,1-.16-.09s0,0,0,0,.15-.15.18-.16h0L36.75,46l.7,3c0,.18,0,.21.26.21a.15.15,0,0,1,.16.1c0,.13-.15.18-.18.19h0L36,49.89h-.13a.13.13,0,0,1-.13-.09.1.1,0,0,1,0-.09h0a.22.22,0,0,1,.07-.06l.09,0,0,0h0C36.05,49.51,36,49.47,36,49.35ZM33.33,50v-.29a.78.78,0,0,0,.22,0,1.16,1.16,0,0,0,.83-.61l.06-.1h0a.15.15,0,0,1,.12,0h0l.07,0a.15.15,0,0,1,.07.14l0,1-1.39,0Zm0-1.69v-.29a.47.47,0,0,0,.22-.12.65.65,0,0,0,.22-.3.25.25,0,0,1,.11-.12.19.19,0,0,1,.09,0c.18,0,.14.17.14.22v.39l0,.64s0,.12-.05.17h0a.11.11,0,0,1-.1,0,.15.15,0,0,1-.1,0,.27.27,0,0,1-.07-.08s0,0,0,0,0,0,0,0A.51.51,0,0,0,33.37,48.34Zm1.19-.78-.07,0a.21.21,0,0,1-.1-.11,1.09,1.09,0,0,0-1-.71v-.28h.63l.72,0,0,1S34.74,47.56,34.56,47.56Zm-3.31,2.27a.1.1,0,0,1,0-.08.2.2,0,0,1,.09,0,.32.32,0,0,0,.15-.05c.07,0,.07-.08.07-.21v-.27l0-2.24a.25.25,0,0,0,0-.16.08.08,0,0,0-.05-.05l-.13-.06a.23.23,0,0,1-.1,0,.09.09,0,0,1,0-.09h0c0-.13.2-.14.22-.14l1.6,0L33.06,50l-1.59,0s-.23,0-.22-.15Zm-2.51-.37.05-.18,0-.08h0c.29,0,.54,0,.62-.25,0,0,0,0,0,0a.37.37,0,0,0-.15-.39,2.94,2.94,0,0,0-.41-.31,4.75,4.75,0,0,1-.69-.51,1.14,1.14,0,0,1-.43-.73,1,1,0,0,1,.26-.8h0a1.16,1.16,0,0,1,.38-.26l0,0a2,2,0,0,1,1.16-.05h0l-.07.27c-.24,0-.46.08-.51.27s.06.41.7.8h0c.94.58,1.06,1.08.95,1.5a1.1,1.1,0,0,1-.26.46l-.13.1-.07.06a1.79,1.79,0,0,1-1,.22,2.22,2.22,0,0,1-.51-.06Zm1.9-2.06a.2.2,0,0,1-.16-.24,1.06,1.06,0,0,0-.39-.81h0a.9.9,0,0,0-.26-.17h0l.07-.27h0l0,0a3.28,3.28,0,0,1,.73.38c.12,0,.16-.06.25-.09s0,0,0,0H31a.16.16,0,0,1,.13.2.43.43,0,0,1,0,0l-.21.79C30.87,47.33,30.81,47.45,30.64,47.4Zm-6-3.24,0,0c-.06,0-.09-.12-.06-.17a.15.15,0,0,1,.16-.06.39.39,0,0,1,.11,0l.45.25.94.54,0,.08-1.74,3L23,47.05s-.19-.12-.12-.24h0s0,0,.07-.05h.11c.21.06.22,0,.31-.12l1.24-2.19C24.73,44.31,24.74,44.27,24.63,44.16Zm.16,3.56a1.21,1.21,0,0,0,1.24-.1h0a.18.18,0,0,1,.21,0l.05.05a.14.14,0,0,1,0,.18l-.09.16-.38.68-.11-.06L24.65,48ZM26,47.19l0,.06a.16.16,0,0,1-.13.07.13.13,0,0,1-.08,0c-.11-.06-.1-.14-.09-.23a.55.55,0,0,0,0-.22.47.47,0,0,0-.17-.35l.15-.27h0a.49.49,0,0,0,.46-.07h0l.1-.09a.26.26,0,0,1,.19,0,.09.09,0,0,1,.07,0,.15.15,0,0,1,.05.22l0,0Zm1-.79-.09,0a.15.15,0,0,1-.08-.1.28.28,0,0,1,0-.09,1,1,0,0,0-.22-.8,2.12,2.12,0,0,0-.3-.3l.13-.23h0l1.18.66-.48.85h0A.11.11,0,0,1,27,46.4Zm.21,2.45.23-.9s0,0,0,0,.08-.15.18-.14,0,0,.05,0a.21.21,0,0,1,.1.06.19.19,0,0,1,.08.14,1.31,1.31,0,0,0,.15.65,1.12,1.12,0,0,0,.54.51h0l-.07.27a1.39,1.39,0,0,1-.47-.21A1.33,1.33,0,0,0,27.7,49c-.15,0-.2.06-.29.08h-.06a.16.16,0,0,1-.14-.2Zm3.1,5.28a.39.39,0,0,0-.44-.34c-.24,0-.39.23-.49.54a3,3,0,0,0-.08.32c0,.17-.39.33-.52.38a1.61,1.61,0,0,1-.72.09.53.53,0,0,1-.32-.15.64.64,0,0,1-.19-.42c0-.27.21-.49.54-.69a1.69,1.69,0,0,1,.33-.16,7.19,7.19,0,0,1,2.11-.36h.09a3.88,3.88,0,0,1,.74.06c.89.14,1,.58,1,1.47l-.08,1.42c0,.64.12.81.32.85h.09a.58.58,0,0,0,.31-.08l.1,0h0s.07,0,.1.06a.25.25,0,0,1,0,.07s0,.08,0,.11a2.81,2.81,0,0,1-1.68.65,1.78,1.78,0,0,1-1.12-.38l-.11-.06-.11,0h-.05l-.06,0-.17.09a3,3,0,0,1-1,.36l-.22,0c-.61,0-1.06-.23-1.17-.69a1.31,1.31,0,0,1,0-.4.7.7,0,0,1,.19-.37,1.77,1.77,0,0,1,.86-.55l.8-.22.7-.17c.24,0,.22-.31.23-.4a.86.86,0,0,0,0-.16,1.36,1.36,0,0,0,0-.21A3.42,3.42,0,0,0,30.31,54.13Zm3,3.31h.19l.23,0h0c.19-.07.21-.22.21-.68v-1.9s0-.7-.14-.88a.1.1,0,0,0-.09,0H33.2c-.07,0-.12-.51.1-.51l.45,0c.44,0,.58.06.63,0a2.11,2.11,0,0,1,.23-.48s.08-.13.15-.24a4,4,0,0,1,.31-.45,2.44,2.44,0,0,1,1.41-.84,2.92,2.92,0,0,1,.61-.07c.55,0,.92.14,1.07.42a.66.66,0,0,1,.08.32.73.73,0,0,1-.71.69c-.26,0-.33,0-.42-.07a2.94,2.94,0,0,1-.33-.35c-.15-.19-.13-.23-.25-.25-.33-.05-.5.06-.7.77v.39a.47.47,0,0,0,.54.11h1.17a1.9,1.9,0,0,1,.09.32.32.32,0,0,1-.16.31h-1c-.4,0-.63.91-.63.91l0,1.9a.71.71,0,0,0,.15.47.48.48,0,0,0,.09.11l.05,0a.54.54,0,0,0,.19.07h0a1.09,1.09,0,0,0,.26,0h.16l.23,0s0,.07.06.12v0a.15.15,0,0,1-.08.14h-.37l-.76,0H34.68l-1.37,0s0,0,0,0a.18.18,0,0,1,0-.09A.16.16,0,0,1,33.29,57.44ZM34,61.91h0a2.42,2.42,0,0,1,2.55-2.19,2.51,2.51,0,0,1,1.26.27,1.43,1.43,0,0,1,.74,1.1,2.38,2.38,0,0,1,0,.39h0c0,1.31-.92,2-2.21,2.17A1.83,1.83,0,0,1,34,61.91ZM40.76,53c0-.06,0-.11.05-.16l.15-.37c.19-.46.3-.89.86-1a.47.47,0,0,1,.47.19h0l0,0a.46.46,0,0,1-.06.54l-.1.1c-.36.24-.66.42-1,.59l-.32.18h0C40.8,53.19,40.71,53.15,40.76,53Zm1.15-4.89L39.2,46c-.12-.09-.1-.12-.28-.09h-.06a.17.17,0,0,1-.12-.05h0s0,0,0,0a.15.15,0,0,1,.06-.15,1.37,1.37,0,0,1,.21-.15l1.22-.69.07,0c.14-.08.32-.18.39,0h0c.1.17-.19.23-.08.41,0,0,0,0,0,0l.06.07h0l1.8,1.49h0l.2,1Zm3-5.58a.2.2,0,0,1,0-.25.15.15,0,0,1,.22,0l0,0,.22.22.52.52s.17.13,0,.26h0l-.11.05h0l-.1,0a.82.82,0,0,0-.29-.09.61.61,0,0,0-.28.07l0,0h0L45,43.23l-.07-.06A.51.51,0,0,0,44.9,42.57Zm.55-.73s0,.08-.08.15l-.1,0-.1,0h0a1,1,0,0,0-.9,0,1.46,1.46,0,0,0-.29.17h0l-.19-.2,1-.94h0l.69.69,0,0v0Zm.67,2.54h0a1.31,1.31,0,0,0,.27-.54,1.06,1.06,0,0,0,0-.68s0,0,0-.06a.18.18,0,0,1,0-.18.15.15,0,0,1,.24,0l.68.68-.45.44-.54.53Zm1.19-2a5,5,0,0,1-2.82-3.93h0a4.89,4.89,0,0,1,2.82,3.93Zm-.45-9h0c.26,1.69-1.19,3.27-2,4-.27.25-.47.4-.47.4.58-3.59,2.44-4.39,2.44-4.39Zm-1-1.36.1-.1h0l.65.59-.77.82,0,0h0a.14.14,0,0,1-.09,0l-.09-.05c-.12-.12,0-.22,0-.32a1.48,1.48,0,0,0,.18-.38.83.83,0,0,0,0-.47ZM43,30.79l.27-.29.5-.53,0,0,.62.56h0l-.19.21h0a.46.46,0,0,0-.2,0,1,1,0,0,0-.35.08,2.14,2.14,0,0,0-.3.17.31.31,0,0,1-.14.09.18.18,0,0,1-.15-.05h0a.28.28,0,0,1-.07-.09A.2.2,0,0,1,43,30.79ZM42.57,33l1.35-1.47.72-.79,1.09,1-1.3,1.42-.77.83c-.06.08-.1.12-.1.16a.35.35,0,0,0,.07.17.13.13,0,0,1,0,.19h0c-.09.1-.24,0-.26,0l-1.23-1.1,0,0h0l0,0h0a.22.22,0,0,1,0-.16.07.07,0,0,1,0-.06.15.15,0,0,1,.18,0h0c.12.06.16.06.22,0Zm-1.66-3.18.2-.5a.37.37,0,0,0,0-.28.34.34,0,0,0-.06-.12h0a.77.77,0,0,0-.13-.12h0l0-.05.09-.22h0a6.53,6.53,0,0,1,.75.37,2.68,2.68,0,0,1,.28.18,1.27,1.27,0,0,1,.16.2.8.8,0,0,1,.11.77c-.2.51-.71.57-1.33.44h0c.47.26.9.56.73,1l-.17.39s0,0,0,.05a.08.08,0,0,0,0,.07,0,0,0,0,0,0,0c.06,0,.11,0,.17,0a.15.15,0,0,1,.13,0s0,0,.05,0a.17.17,0,0,1,.06.11s0,0,0,0h0c0,.13-.31.22-.46.24a1,1,0,0,1-.43,0,1.62,1.62,0,0,1-.27-.08l-.19-.1a.91.91,0,0,1-.36-.34.61.61,0,0,1-.06-.45,1.72,1.72,0,0,1,.07-.21l.12-.29a.49.49,0,0,0,0-.11.35.35,0,0,0-.19-.51h0l.11-.26c.31.1.41,0,.5-.25Zm-2.65.86,1-2.33c0-.08.06-.13.05-.17s-.05-.08-.13-.14l0,0a.13.13,0,0,1,0-.14h0a.11.11,0,0,1,.09-.07.37.37,0,0,1,.17,0h0l.36.14,1.12.46h0l-1.17,2.82c0,.05,0,.09,0,.12s0,0,0,0,0,.08.14.14.09.11.06.17h0a.13.13,0,0,1-.18.07l-.08,0L38,31.12l-.07,0s-.07-.06-.08-.1a.11.11,0,0,1,0-.08c0-.07.08-.09.17-.08H38a.17.17,0,0,0,.2-.11A.14.14,0,0,1,38.26,30.67Zm-1.78-.19.31-2,.07-.46c0-.12,0-.26-.26-.38l0-.28h0a2,2,0,0,1,1.39,1,1.84,1.84,0,0,1,.19,1.16,1.77,1.77,0,0,1-1.69,1.57,1.69,1.69,0,0,1-.45,0h0l0-.27.07,0C36.42,30.7,36.47,30.59,36.48,30.48Zm-2.24-1.59a1.77,1.77,0,0,1,1.68-1.57,3.53,3.53,0,0,1,.46,0l0,.14,0,.13c-.29.05-.34.18-.36.3l-.37,2.46c0,.13,0,.27.25.39l0,.27h0a2.19,2.19,0,0,1-1.1-.54,1.59,1.59,0,0,1-.38-.56A2,2,0,0,1,34.24,28.89Zm-2-1.8a5.15,5.15,0,0,1,.62,0,2.35,2.35,0,0,1,.4,0l.18,0a1.05,1.05,0,0,1,.61.48,1.13,1.13,0,0,1,.12.38.94.94,0,0,1-.39.9l-.12.1-.14.06a2.26,2.26,0,0,1-.44.15,4,4,0,0,1-.6.09l0-.27c.35-.1.35-.29.33-.53l-.09-.72v0a.37.37,0,0,0-.29-.35l-.12,0,0-.27Zm-1.92.22h.06l.27,0L32,27.12h0l.34,3v.05a.17.17,0,0,0,0,.13s.08,0,.18.06.15.05.15.11-.18.17-.2.17l-.24,0-1.46.17s-.22,0-.24-.13,0-.12.12-.13a.57.57,0,0,0,.15-.09s0,0,0,0a.46.46,0,0,0,0-.18l-.29-2.51c0-.13,0-.17-.1-.2l-.13,0h0l-.07,0a.09.09,0,0,1,0-.08C30.17,27.37,30.26,27.33,30.33,27.31Zm-3,.68a.44.44,0,0,1,.21-.13l.76-.27.17-.05c.06,0,.12,0,.13.07a.13.13,0,0,1,0,.12l-.08.08,0,0a1,1,0,0,0-.29.47L28,29h0l-.26-.21,0-.16c0-.1.08-.2,0-.29s-.13-.15-.26-.15-.16,0-.19-.09A.12.12,0,0,1,27.37,28Zm-2.31.91s0,0,0,0,.08-.08.14-.11l.17-.07.76-.28.55-.2c.15-.05.37-.12.43,0h0c0,.06,0,.1-.06.13s0,0,0,.06a.06.06,0,0,0,0,.07s0,.05.06.07l0,0,2.39,1.88a.39.39,0,0,0,.26.11h.05c.06,0,.12,0,.14.09a.11.11,0,0,1,0,.1c0,.08-.19.14-.29.17l-1.32.48a1.2,1.2,0,0,1-.27.08c-.08,0-.15,0-.17-.08h0c-.05-.12.14-.18.11-.29a.24.24,0,0,0-.1-.12l0,0-2.34-1.81a.43.43,0,0,0-.18-.12h-.12c-.07,0-.12,0-.15-.09h0S25.06,28.92,25.06,28.9ZM25,31.83a.2.2,0,0,1,0-.07.13.13,0,0,1,0-.06l0-.05s0,0,0-.06.18-.05.21,0l0,0,.38.46.23.28h0l-1.08.88L24.62,33h0l.19-.24a1.25,1.25,0,0,0,.16-.33,1.12,1.12,0,0,0,.05-.31A1.54,1.54,0,0,0,25,31.83Zm-.43-.12v0a.16.16,0,0,1,.06.13.14.14,0,0,1-.06.12h0l-.08,0a.22.22,0,0,1-.16,0l-.11-.06a.5.5,0,0,0-.49,0l0-.05-.15-.19a.51.51,0,0,0,.08-.51l0-.08a.21.21,0,0,1,.05-.24h0a.14.14,0,0,1,.17,0s.07.07.09.08l.37.44Zm-1-2.11h0l.62.75s0,0,0,.06a.11.11,0,0,1,0,.07l-.07.08a.17.17,0,0,1-.2,0h0a1,1,0,0,0-.81-.08,1.92,1.92,0,0,0-.4.17h0l-.17-.22Zm-2.49,2,1.24-1,1,1.21,1.29,1.57-1.23,1,0,0a.2.2,0,0,1-.17,0s0,0-.06,0a.15.15,0,0,1,0-.18c.13-.17.11-.2,0-.32l-1.6-2c-.12-.14-.13-.16-.33-.07l-.05,0H21s0,0-.05,0a0,0,0,0,1,0,0C20.93,31.74,21,31.63,21.06,31.62Zm-1,1.73h0a3.38,3.38,0,0,1,1.14,1.11,7.51,7.51,0,0,1,1.16,3.35h0a8,8,0,0,1-2-2.49A3.27,3.27,0,0,1,20,33.35Zm-.23,2.48a2.78,2.78,0,0,1,1,1.86h0a3.12,3.12,0,0,1-1.89-2.34A2.76,2.76,0,0,1,19.8,35.83Zm-1,1.66a1.93,1.93,0,0,1,1.12.32h0a1.79,1.79,0,0,1-1,.3,1.87,1.87,0,0,1-1-.33h0A2,2,0,0,1,18.82,37.49ZM20.9,72.66a4.46,4.46,0,0,1-1.35.59,20.45,20.45,0,0,1-5,.44c-.6,0-1.2,0-1.75,0H12c-1.25,0-2.55,0-4,0,0,0,0,0,0,0a.49.49,0,0,1-.08-.51l0,0S8,73,8,73l.16,0,.34,0a2.11,2.11,0,0,0,.83-.24c.36-.23.4-.68.4-1.8V64.21c0-1.29.11-1.78-.15-2a1.2,1.2,0,0,0-.67-.2l-.69-.08a.39.39,0,0,1-.18-.36.29.29,0,0,1,.28-.31c.74,0,1.45-.06,2.2-.06,1.25,0,2.57,0,4.17,0a31.47,31.47,0,0,1,4,.15,5.39,5.39,0,0,1,1.27.3,3.26,3.26,0,0,1,.83.46,2.07,2.07,0,0,1,.77,2,2.31,2.31,0,0,1-1.23,1.66,12.59,12.59,0,0,1-1.95.8s.07,0,.16.06h.06l.33,0a4,4,0,0,1,3.08,2,1.48,1.48,0,0,1,.08.13s0,0,0,0a2.62,2.62,0,0,1,.18.56,3.51,3.51,0,0,1,.07.66A2.93,2.93,0,0,1,20.9,72.66ZM30.76,68a1.17,1.17,0,0,1-1-.41,4,4,0,0,0-.58-.49.89.89,0,0,0-.46-.2c-.71,0-1.1.5-1.1,1.31v3c0,1.48.23,1.66,1.22,1.72l.88.06h.08a.47.47,0,0,1,0,.74h0c-1.44-.05-2.64-.07-4-.07-1.23,0-2.55,0-3.54.07h0a.33.33,0,0,1-.16-.22A.45.45,0,0,1,22.2,73h0l.54,0a2.28,2.28,0,0,0,.64-.12.63.63,0,0,0,.39-.47,4.8,4.8,0,0,0,.09-1.16V68h0c0-.85.16-1.64-.38-2l-.94-.35a.47.47,0,0,1-.19-.18.17.17,0,0,1,.08-.26c1.38-.27,4-.15,4.88-.58a1,1,0,0,1,.28,0s.05,0,.08.06a.59.59,0,0,1,.11.08,9.88,9.88,0,0,0-.08,1.16c0,.14.06.41.3.24l.06,0a5.18,5.18,0,0,1,2.84-1.34,1.62,1.62,0,0,1,.58.12,1.52,1.52,0,0,1,1,1.36A1.62,1.62,0,0,1,30.76,68Zm8.74,5.39a.31.31,0,0,1-.14.23c-.89,0-2.27,0-3.45,0s-2.21,0-3.06,0h0a.36.36,0,0,1-.16-.26.46.46,0,0,1,.13-.48h0l.49,0c.42,0,.66-.1.79-.34a3.37,3.37,0,0,0,.16-1.4v-3.2c0-.85.23-1.75-.5-2L33,65.61c-.12-.08-.2-.17-.2-.27s0,0,0,0h0a.17.17,0,0,1,.07-.1c1.2-.28,4.12-.29,4.88-.67a.54.54,0,0,1,.46.19c-.05.64-.08,1.57-.08,2.53l0,1.26L38,71.14a3.54,3.54,0,0,0,.14,1.44c.11.21.32.27.72.3l.49,0A.49.49,0,0,1,39.5,73.43ZM47.33,66a.52.52,0,0,1-.16.14h-1.6a1.82,1.82,0,0,0-1.12.26.3.3,0,0,0-.1.22l0,1.48,0,1.66c0,1.18-.29,2.48,1.46,2.48a1.48,1.48,0,0,0,.66-.2l.4-.21h0a.49.49,0,0,1,.34.34s0,0,0,0a.37.37,0,0,1,0,.18,6.21,6.21,0,0,1-3.79,1.13c-1.67,0-2.46-.54-2.72-1.47a2.9,2.9,0,0,1-.1-.75h0V66.62a1.28,1.28,0,0,0,0-.21c0-.24-.1-.27-.46-.27l-.47-.09a.57.57,0,0,1-.35-.54s0,0,0,0a.21.21,0,0,1,.07-.14,7.89,7.89,0,0,0,1.21-.46,5.49,5.49,0,0,0,.68-.35c.45-.27.64-.5,1.19-1.68,0,0,1-.24,1.66-.34a1.43,1.43,0,0,1,.52-.05h0l-.05,1.46v.32c0,.32,0,.64.37.64h2.38a.32.32,0,0,1,.1.1,1,1,0,0,1,.1.42A1.1,1.1,0,0,1,47.33,66Zm-.77-26.62a2,2,0,0,1-.51-1.14h0A2.85,2.85,0,0,1,48,40.12a0,0,0,0,0,0,0h0A2.63,2.63,0,0,1,46.56,39.38Zm10,26.32a.63.63,0,0,1-.29.44H54.69a2.55,2.55,0,0,0-1,.15.38.38,0,0,0-.24.33l0,1.26,0,1.88c0,1.18-.29,2.48,1.47,2.48a2.43,2.43,0,0,0,1-.41.47.47,0,0,1,.35.43.49.49,0,0,1,0,.12h0a6.23,6.23,0,0,1-3.79,1.13,3.3,3.3,0,0,1-2.19-.59,2,2,0,0,1-.62-1.63V66.62c0-.22,0-.34-.07-.41s-.18-.07-.41-.07l-.48-.09a.56.56,0,0,1-.31-.33c0-.15,0-.3,0-.37h0a8,8,0,0,0,1.45-.57h0l.43-.23.05,0c.36-.22.55-.45.95-1.25l.19-.4h0l.34-.09.73-.15a5.22,5.22,0,0,1,1.11-.15h0l0,1.46c0,.4-.1,1,.36,1H56.4s.05,0,.07.06l0,0,0,.07a1,1,0,0,1,.09.37A1.1,1.1,0,0,1,56.56,65.7Zm2.62,6.48a1.14,1.14,0,0,1-.25.69,1.21,1.21,0,0,1-2.17-.69h0a1.16,1.16,0,0,1,.58-1A1.13,1.13,0,0,1,58,71a1.19,1.19,0,0,1,.64.21,1.15,1.15,0,0,1,.57,1Z"/><path d="M14.83,67A2.69,2.69,0,0,0,17,64.21a2.1,2.1,0,0,0-.43-1.42,1.55,1.55,0,0,0-1.21-.52c-1.2,0-1.18.45-1.18,1.28v3.1a.64.64,0,0,0,0,.27C14.26,67.1,14.46,67.05,14.83,67Z"/></g></g></svg>