<svg xmlns="http://www.w3.org/2000/svg" viewBox="0 0 76 76"><defs><style>.cls-1{fill:#de560d;}</style></defs><g id="Layer_2" data-name="Layer 2"><g id="Layer_2-2" data-name="Layer 2"><path class="cls-1" d="M52.47,27.78h0c0-3.32.93-5.59,5.69-5.59h0C53.4,22.19,52.47,24.46,52.47,27.78Z"/><path class="cls-1" d="M71.81,76H76V71.81A4.2,4.2,0,0,1,71.81,76Z"/><path class="cls-1" d="M4.19,0H0V4.19A4.2,4.2,0,0,1,4.19,0Z"/><path class="cls-1" d="M0,71.81V76H4.19A4.2,4.2,0,0,1,0,71.81Z"/><path class="cls-1" d="M71.81,0A4.2,4.2,0,0,1,76,4.19V0Z"/><path class="cls-1" d="M71.81,0H4.19A4.2,4.2,0,0,0,0,4.19V71.81A4.2,4.2,0,0,0,4.19,76H40.6V46.61H30.73V35.11H40.6V26.64c0-9.82,6-15.16,14.75-15.16a81.39,81.39,0,0,1,8.85.45V22.19h-6c-4.76,0-5.69,2.27-5.69,5.59v7.33H63.86l-1.48,11.5H52.47V76H71.81A4.2,4.2,0,0,0,76,71.81V4.19A4.2,4.2,0,0,0,71.81,0Z"/></g></g></svg>