<svg xmlns="http://www.w3.org/2000/svg" viewBox="0 0 76.08 76.08"><defs><style>.cls-1{fill:#de560d;}</style></defs><g id="Layer_2" data-name="Layer 2"><g id="Layer_2-2" data-name="Layer 2"><path class="cls-1" d="M38,6.85c10.16,0,11.36,0,15.37.23a20.55,20.55,0,0,1,7.06,1.31,11.76,11.76,0,0,1,4.38,2.84,11.81,11.81,0,0,1,2.84,4.37A21.19,21.19,0,0,1,69,22.67c.19,4,.23,5.21.23,15.37s0,11.36-.23,15.37a21.06,21.06,0,0,1-1.31,7.06,12.51,12.51,0,0,1-7.22,7.22A21.06,21.06,0,0,1,53.41,69c-4,.19-5.21.23-15.37.23s-11.36,0-15.37-.23a21.19,21.19,0,0,1-7.07-1.31,11.81,11.81,0,0,1-4.37-2.84,11.76,11.76,0,0,1-2.84-4.38,20.55,20.55,0,0,1-1.31-7.06c-.19-4-.23-5.21-.23-15.37s0-11.36.23-15.37A20.68,20.68,0,0,1,8.39,15.6a11.81,11.81,0,0,1,2.84-4.37A11.81,11.81,0,0,1,15.6,8.39a20.68,20.68,0,0,1,7.07-1.31c4-.19,5.21-.23,15.37-.23M38,0C27.71,0,26.41,0,22.36.23A27.84,27.84,0,0,0,13.12,2,19.36,19.36,0,0,0,2,13.12,27.84,27.84,0,0,0,.23,22.36C0,26.41,0,27.71,0,38S0,49.67.23,53.72A27.84,27.84,0,0,0,2,63a18.6,18.6,0,0,0,4.38,6.73,18.62,18.62,0,0,0,6.74,4.39,27.84,27.84,0,0,0,9.24,1.77c4.05.19,5.35.23,15.68.23s11.63,0,15.68-.23A27.84,27.84,0,0,0,63,74.08,19.51,19.51,0,0,0,74.08,63a27.84,27.84,0,0,0,1.77-9.24c.19-4,.23-5.35.23-15.68s0-11.63-.23-15.68a27.84,27.84,0,0,0-1.77-9.24,18.62,18.62,0,0,0-4.39-6.74A18.6,18.6,0,0,0,63,2,27.84,27.84,0,0,0,53.72.23C49.67,0,48.37,0,38,0Z"/><path class="cls-1" d="M38,18.51A19.53,19.53,0,1,0,57.57,38,19.53,19.53,0,0,0,38,18.51Zm0,32.21A12.68,12.68,0,1,1,50.72,38,12.68,12.68,0,0,1,38,50.72Z"/><circle class="cls-1" cx="58.35" cy="17.73" r="4.56"/></g></g></svg>