<svg xmlns="http://www.w3.org/2000/svg" viewBox="0 0 97.89 79.6"><defs><style>.cls-1{fill:#de560d;}</style></defs><g id="Layer_2" data-name="Layer 2"><g id="Layer_2-2" data-name="Layer 2"><g id="Logo_FIXED" data-name="Logo — FIXED"><path class="cls-1" d="M30.75,79.6C67.69,79.6,87.9,49,87.9,22.45c0-.87,0-1.73,0-2.59a40.87,40.87,0,0,0,10-10.42,40.56,40.56,0,0,1-11.55,3.17A20.19,20.19,0,0,0,95.19,1.49,40,40,0,0,1,82.42,6.35,20.09,20.09,0,0,0,47.67,20.1a22.47,22.47,0,0,0,.51,4.58,57,57,0,0,1-41.4-21A20.15,20.15,0,0,0,13,30.52,20.3,20.3,0,0,1,3.92,28v.27A20.13,20.13,0,0,0,20,48a19.63,19.63,0,0,1-5.29.7A20.15,20.15,0,0,1,11,48.34,20.09,20.09,0,0,0,29.73,62.29,40.3,40.3,0,0,1,4.78,70.9,37.87,37.87,0,0,1,0,70.63a57.14,57.14,0,0,0,30.75,9"/></g></g></g></svg>