<svg xmlns="http://www.w3.org/2000/svg" viewBox="0 0 73.9 52.06"><defs><style>.cls-1{fill:#de560d;}</style></defs><g id="Layer_2" data-name="Layer 2"><g id="Layer_2-2" data-name="Layer 2"><path class="cls-1" d="M72.35,8.13a9.29,9.29,0,0,0-6.53-6.58C60.06,0,37,0,37,0S13.84,0,8.08,1.55A9.31,9.31,0,0,0,1.54,8.13C0,13.93,0,26,0,26s0,12.1,1.54,17.9a9.31,9.31,0,0,0,6.54,6.58C13.84,52.06,37,52.06,37,52.06s23.11,0,28.87-1.55a9.29,9.29,0,0,0,6.53-6.58C73.9,38.13,73.9,26,73.9,26S73.9,13.93,72.35,8.13ZM29.39,37V15L48.7,26Z"/></g></g></svg>